Coordinates
version=1
nRows=12
nColumns=34
inDegrees=yes

Units are S.I. units (second, meters, Newtons, ...)
Angles are in degrees.

endheader
time	pelvis_tilt	pelvis_list	pelvis_rotation	pelvis_tx	pelvis_ty	pelvis_tz	hip_flexion_r	hip_adduction_r	hip_rotation_r	knee_angle_r	ankle_angle_r	subtalar_angle_r	mtp_angle_r	hip_flexion_l	hip_adduction_l	hip_rotation_l	knee_angle_l	socket_flexion	socket_adduction	socket_rotation	socket_tx	socket_ty	socket_tz	pros_ankle_rx	pros_ankle_ry	pros_ankle_rz	pros_ankle_tx	pros_ankle_ty	pros_ankle_tz	foot_flex	lumbar_extension	lumbar_bending	lumbar_rotation
      0.00000000	     -3.50195146	    -10.67973892	     -5.19133176	     -0.78707722	      1.03970110	      0.36722950	    -15.53449857	     11.54197173	     -3.00754360	     -3.32156022	      4.12840099	     22.00809087	     28.28961505	     24.14681910	    -11.77185907	      1.09163628	     -1.29287875	      0.00000000	      0.00000000	      0.00000000	      0.00000000	     -0.00689635	      0.00000000	      0.00000000	      0.00000000	      0.00000000	      0.00000000	      0.00000000	      0.00000000	     -0.17188510	     -5.31099283	      8.54175276	    -10.27026545
      0.00416667	     -3.52222683	    -10.69909234	     -5.25674337	     -0.78223004	      1.03875566	      0.36721448	    -15.74182335	     11.49011865	     -2.97369318	     -3.42818105	      4.12248539	     22.02517081	     28.29947058	     24.24943963	    -11.76476424	      1.10188443	     -1.57720965	      0.00000000	      0.00000000	      0.00000000	      0.00000000	     -0.00720388	      0.00000000	      0.00000000	      0.00000000	      0.00000000	      0.00000000	      0.00000000	      0.00000000	     -0.46350342	     -5.27533723	      8.50969556	    -10.27281751
      0.00833333	     -3.55148067	    -10.73350089	     -5.31145054	     -0.77718879	      1.03775417	      0.36711407	    -15.94727359	     11.45294725	     -2.90679102	     -3.54479083	      4.12957689	     22.06795165	     28.32125673	     24.36779859	    -11.76128032	      1.11913792	     -1.87425538	      0.00000000	      0.00000000	      0.00000000	      0.00000000	     -0.00759429	      0.00000000	      0.00000000	      0.00000000	      0.00000000	      0.00000000	      0.00000000	      0.00000000	     -0.85797407	     -5.25070980	      8.45793936	    -10.26686857
      0.01250000	     -3.59661414	    -10.76343047	     -5.39146506	     -0.77197850	      1.03671715	      0.36714370	    -16.14239959	     11.41369321	     -2.82918836	     -3.66525950	      4.15383692	     22.13167606	     28.35837496	     24.48724216	    -11.77653591	      1.15948495	     -2.18043784	      0.00000000	      0.00000000	      0.00000000	      0.00000000	     -0.00803612	      0.00000000	      0.00000000	      0.00000000	      0.00000000	      0.00000000	      0.00000000	      0.00000000	     -1.26930066	     -5.23401448	      8.40079550	    -10.25203036
      0.01666667	     -3.62439986	    -10.78549248	     -5.47940956	     -0.76659296	      1.03568472	      0.36714847	    -16.35398530	     11.35041802	     -2.77308333	     -3.80087094	      4.16471225	     22.17826730	     28.38636420	     24.59246437	    -11.78457104	      1.18315849	     -2.53516656	      0.00000000	      0.00000000	      0.00000000	      0.00000000	     -0.00851569	      0.00000000	      0.00000000	      0.00000000	      0.00000000	      0.00000000	      0.00000000	      0.00000000	     -1.61228996	     -5.20324109	      8.35823410	    -10.23776804
      0.02083333	     -3.65295674	    -10.81367614	     -5.54481027	     -0.76113013	      1.03462296	      0.36710913	    -16.56140449	     11.30116484	     -2.69530520	     -3.95136006	      4.17957580	     22.24286758	     28.42465790	     24.71563180	    -11.78595220	      1.19659173	     -2.93081805	      0.00000000	      0.00000000	      0.00000000	      0.00000000	     -0.00909462	      0.00000000	      0.00000000	      0.00000000	      0.00000000	      0.00000000	      0.00000000	      0.00000000	     -2.01995169	     -5.17805240	      8.29675382	    -10.21480901
      0.02500000	     -3.73033784	    -10.86068425	     -5.63597211	     -0.75562865	      1.03349752	      0.36705915	    -16.69864404	     11.26751228	     -2.57757286	     -4.14871271	      4.23733876	     22.37899618	     28.52788627	     24.87649705	    -11.81946824	      1.26035316	     -3.31879443	      0.00000000	      0.00000000	      0.00000000	      0.00000000	     -0.00972395	      0.00000000	      0.00000000	      0.00000000	      0.00000000	      0.00000000	      0.00000000	      0.00000000	     -2.50553363	     -5.19055321	      8.20466228	    -10.15741534
      0.02916667	     -4.05056512	    -10.90349363	     -5.81772534	     -0.74997352	      1.03194291	      0.36714450	    -16.35117899	     11.19592664	     -2.87036358	     -4.80064800	      4.52434354	     23.24270003	     29.83283465	     25.33336893	    -11.89306249	      1.27345167	     -3.85566411	      0.00000000	      0.00000000	      0.00000000	      0.00000000	     -0.01047651	      0.00000000	      0.00000000	      0.00000000	      0.00000000	      0.00000000	      0.00000000	      0.00000000	     -2.85193179	     -4.81574438	      8.24101503	     -9.83837902
      0.03333333	     -4.04861264	    -10.90826790	     -5.87733194	     -0.74422946	      1.03094289	      0.36710811	    -16.58626444	     11.11353231	     -2.81487043	     -4.96222606	      4.49176942	     23.26928242	     29.86691637	     25.41857536	    -11.87479644	      1.28844807	     -4.34426788	      0.00000000	      0.00000000	      0.00000000	      0.00000000	     -0.01123135	      0.00000000	      0.00000000	      0.00000000	      0.00000000	      0.00000000	      0.00000000	      0.00000000	     -3.19279198	     -4.78137565	      8.17590635	     -9.84657222
      0.03750000	     -4.16384322	    -10.85286658	     -5.88273212	     -0.73839803	      1.02966634	      0.36695574	    -16.53094614	     10.95065772	     -3.28181851	     -5.36391534	      4.16711323	     23.94144572	     32.90635528	     25.65087531	    -11.77193026	      1.37809636	     -4.85665970	      0.00000000	      0.00000000	      0.00000000	      0.00000000	     -0.01200254	      0.00000000	      0.00000000	      0.00000000	      0.00000000	      0.00000000	      0.00000000	      0.00000000	     -3.63773575	     -4.71922803	      8.04655030	     -9.97745578
      0.04166667	     -4.14264845	    -10.87354134	     -5.91620667	     -0.73263744	      1.02868846	      0.36689039	    -16.77689769	     10.89416090	     -3.18848615	     -5.54540755	      4.17857544	     23.95637595	     32.92371661	     25.73821191	    -11.76637358	      1.39443752	     -5.43439077	      0.00000000	      0.00000000	      0.00000000	      0.00000000	     -0.01287455	      0.00000000	      0.00000000	      0.00000000	      0.00000000	      0.00000000	      0.00000000	      0.00000000	     -3.90995184	     -4.67257089	      7.93267005	     -9.96218406
      0.04583333	     -4.14017673	    -10.87481180	     -5.95043582	     -0.72685918	      1.02776810	      0.36680117	    -16.97157830	     10.82257761	     -3.08753412	     -5.77069458	      4.16604100	     23.96892975	     32.95064704	     25.83945027	    -11.73869847	      1.42414242	     -6.02720364	      0.00000000	      0.00000000	      0.00000000	      0.00000000	     -0.01372044	      0.00000000	      0.00000000	      0.00000000	      0.00000000	      0.00000000	      0.00000000	      0.00000000	     -4.19567102	     -4.66855938	      7.81891004	     -9.94594342
